<?xml version="1.0" encoding="UTF-8" standalone="no"?>
<svg
   width="1200"
   height="600"
   version="1.1"
   id="svg20"
   sodipodi:docname="Flag_of_Russia.svg"
   inkscape:version="1.1.2 (b8e25be833, 2022-02-05)"
   xmlns:inkscape="http://www.inkscape.org/namespaces/inkscape"
   xmlns:sodipodi="http://sodipodi.sourceforge.net/DTD/sodipodi-0.dtd"
   xmlns="http://www.w3.org/2000/svg"
   xmlns:svg="http://www.w3.org/2000/svg">
  <defs
     id="defs24" />
  <sodipodi:namedview
     id="namedview22"
     pagecolor="#ffffff"
     bordercolor="#666666"
     borderopacity="1.0"
     inkscape:pageshadow="2"
     inkscape:pageopacity="0.0"
     inkscape:pagecheckerboard="0"
     showgrid="false"
     inkscape:zoom="1"
     inkscape:cx="427.5"
     inkscape:cy="200.5"
     inkscape:window-width="1728"
     inkscape:window-height="992"
     inkscape:window-x="-8"
     inkscape:window-y="-8"
     inkscape:window-maximized="1"
     inkscape:current-layer="svg20" />
  <rect
     width="1200"
     height="333.33334"
     fill="#bc0000"
     id="rect2"
     style="fill:#008008;fill-opacity:1"
     x="0"
     y="0" />
  <rect
     width="1200"
     height="88.888885"
     y="333.33334"
     fill="#ffffff"
     id="rect16-5"
     x="0"
     style="fill:#ffffff;fill-opacity:1;stroke-width:0.57735" />
  <rect
     width="1200"
     height="88.888885"
     y="422.22223"
     fill="#ffffff"
     id="rect16-5-8"
     x="0"
     style="fill:#088ce8;fill-opacity:1;stroke-width:0.57735" />
  <rect
     width="1200"
     height="88.888885"
     y="511.11111"
     fill="#ffffff"
     id="rect16-5-8-1"
     x="0"
     style="fill:#da1525;fill-opacity:1;stroke-width:0.57735" />
  <g
     style="overflow:visible"
     id="g4804"
     transform="matrix(2,0,0,2,1275,6.4285714)">
    <g
       id="g327">
		</g>
    <g
       id="g3946">
      <g
         id="g993"
         style="fill:#fcd116;fill-opacity:1">
        <path
           id="path311"
           style="fill:#fcd116;fill-opacity:1;stroke-width:1"
           d="m -272.56002,17.686417 0.0195,0.506836 v 74.372071 10.749996 19.37891 h 12.9707 l 0.0488,-28.789061 -0.20898,-11.33008 v -57.90039 l 19.3789,-0.05859 v 57.900389 l -0.20899,11.33008 0.0489,28.789052 h 12.9707 V 103.25673 92.506729 18.251847 l 0.0196,-0.506836 h -0.0196 v -0.05859 z"
           sodipodi:nodetypes="ccccccccccccccccccccc" />
        <path
           id="path311-0"
           style="overflow:visible;fill:#fcd116;fill-opacity:1;stroke-width:1"
           d="m -372.45572,17.627614 0.0196,0.506836 v 74.372071 10.749999 19.3789 h 12.9707 l 0.0489,-28.789054 -0.20898,-11.33008 V 24.615895 l 19.3789,-0.05859 v 57.90039 l -0.20898,11.33008 0.0488,28.789055 h 12.9707 v -19.3789 -10.75 -74.254882 l 0.0196,-0.506836 h -0.0196 v -0.05859 z"
           sodipodi:nodetypes="ccccccccccccccccccccc" />
        <path
           id="path311-0-8"
           style="overflow:visible;fill:#fcd116;fill-opacity:1;stroke-width:0.496568"
           d="m -420.21415,78.556724 0.01,0.251678 v 36.930788 5.3381 1.49943 h 13.451 l 0.0243,-6.17221 -0.10378,-5.62615 2e-4,-26.98041 13.89735,1.6e-4 v 26.98024 l -0.10377,5.62616 0.0242,6.17221 h 13.451 v -1.49943 -5.33811 -36.87259 l 0.01,-0.251678 h -0.01 v -0.02909 z"
           sodipodi:nodetypes="ccccccccccccccccccccc" />
        <path
           id="path311-0-8-7"
           style="overflow:visible;fill:#fcd116;fill-opacity:1;stroke-width:0.496568"
           d="m -220.40296,78.6748 v 1.499025 5.33789 36.931635 l -0.01,0.25098 27.26172,-0.0195 c 5.70746,3.57208 7.35157,5.37849 10.06836,10.38086 h 13.45117 c -5.71716,-6.24918 -7.06023,-8.02461 -10.13086,-10.6709 v 0 0 0 -36.873045 -5.33789 -1.499025 h -13.45117 l -0.0244,6.171875 0.10449,5.625975 v 26.98047 h -13.89746 V 90.47263 l 0.10351,-5.625975 -0.0244,-6.171875 z"
           sodipodi:nodetypes="cccccccccccccccccccccccc" />
        <path
           id="path311-0-4"
           style="overflow:visible;fill:#fcd116;fill-opacity:1;stroke-width:2"
           d="M 328.61719 41.466797 L 328.61719 55.308594 L 328.51953 190.68555 C 309.79685 215.12522 286.98805 237.89996 262.34375 251.4668 L 290.19922 251.4668 C 303.1192 244.56682 321.72453 228.1857 334.64453 213.3457 L 356.16797 190.68555 L 356.18555 183.75 L 356.26562 55.542969 L 394.71484 55.425781 L 394.71484 171.22656 L 394.29688 193.88672 L 394.39453 251.46484 L 420.33594 251.46484 L 420.33594 212.70703 L 420.33594 191.20703 L 420.33594 42.697266 L 420.37695 41.683594 L 420.33594 41.683594 L 420.33594 41.566406 L 356.27539 41.566406 L 328.61719 41.466797 z "
           transform="matrix(0.5,0,0,0.5,-637.5,-3.2142857)" />
        <path
           id="path313-9"
           style="overflow:visible;fill:#fcd116;fill-opacity:1;stroke-width:1"
           d="m -299.99828,78.615769 c -14.9802,0 -20.23036,12.709775 -20.32036,22.009751 0.09,9.29998 5.34017,22.01001 20.32036,22.01001 14.98022,0 20.23023,-12.71002 20.32023,-22.01 -0.09,-9.299976 -5.34003,-22.009761 -20.32023,-22.009761 z m -0.65918,5.20703 c 0.21919,-0.0015 0.43893,0.0099 0.65918,0.0342 3.52393,-0.389235 7.02819,2.56323 6.81055,7.75879 0.02,3 0.0387,5.999755 0.0587,9.009741 -0.02,3.00999 -0.0387,6.00979 -0.0587,9.00979 0.21765,5.19556 -3.28662,8.14803 -6.81055,7.75879 -3.52394,0.38924 -7.02819,-2.56323 -6.81055,-7.75879 -0.02,-3 -0.0387,-5.99979 -0.0586,-9.00978 0.02,-3.009986 0.0387,-6.009751 0.0586,-9.009751 -0.20403,-4.87084 2.86354,-7.7703 6.15137,-7.79297 z"
           sodipodi:nodetypes="scscssccccccccss" />
        <path
           id="polygon331"
           style="fill:#fcd116;fill-opacity:1;stroke-width:1"
           d="m -529.74619,-3.2129422 v 141.1250022 8.875 l 374.35901,-0.0948 v -8.875 -141.1250022 h -8.87403 V 137.81724 l -356.61096,0.0948 V -3.2129422 Z"
           sodipodi:nodetypes="ccccccccccc" />
      </g>
    </g>
  </g>
</svg>
