<?xml version="1.0" encoding="UTF-8" standalone="no"?>
<svg
   width="1000"
   height="650"
   xml:space="preserve"
   version="1.1"
   id="svg18"
   sodipodi:docname="Flag_of_Australia.svg"
   inkscape:version="1.1.2 (b8e25be833, 2022-02-05)"
   xmlns:inkscape="http://www.inkscape.org/namespaces/inkscape"
   xmlns:sodipodi="http://sodipodi.sourceforge.net/DTD/sodipodi-0.dtd"
   xmlns="http://www.w3.org/2000/svg"
   xmlns:svg="http://www.w3.org/2000/svg"><defs
   id="defs22" /><sodipodi:namedview
   id="namedview20"
   pagecolor="#ffffff"
   bordercolor="#666666"
   borderopacity="1.0"
   inkscape:pageshadow="2"
   inkscape:pageopacity="0.0"
   inkscape:pagecheckerboard="0"
   showgrid="false"
   inkscape:zoom="0.7919596"
   inkscape:cx="488.02995"
   inkscape:cy="339.03245"
   inkscape:window-width="1728"
   inkscape:window-height="992"
   inkscape:window-x="-8"
   inkscape:window-y="-8"
   inkscape:window-maximized="1"
   inkscape:current-layer="svg18" />
  <style
   id="style2">
    .st0{fill:#213f77}.st1{fill:#fff}
  </style>
  <path
   class="st0"
   d="M0 0h1000v650H0z"
   id="path4"
   style="fill:#40826d;fill-opacity:1" />
  <path
   class="st0"
   d="M450.9 93.7h97.5v462.5h-97.5z"
   id="path6"
   style="fill:#40826d;fill-opacity:1" />
  <path
   class="st0"
   d="M118.5 275H881v100H118.5z"
   id="path8"
   style="fill:#40826d;fill-opacity:1" />
  <path
   class="st1"
   d="M454.6 93.7h90v462.5h-90z"
   id="path10" />
  <path
   class="st1"
   d="M124.7 278.7h750v92.5h-750z"
   id="path12" />
  <path
   class="st0"
   d="m499.7 232.4 17.7 49.8 47.7-22.7-22.7 47.7 49.8 17.7-49.8 17.7 22.7 47.8-47.7-22.7-17.7 49.7-17.7-49.7-47.7 22.7 22.6-47.8-49.7-17.7 49.7-17.7-22.6-47.7 47.7 22.7 17.7-49.8M124.6 239.3l16.4 46.1 44.2-21-21 44.2 46.1 16.3-46.1 16.4 21 44.2-44.2-21-16.4 46.1-16.3-46.1-44.2 21 21-44.2L39 324.9l46.1-16.3-21-44.2 44.2 21 16.3-46.1M874.6 239.3l16.4 46.1 44.1-21-21 44.2 46.1 16.3-46.1 16.4 21 44.2-44.1-21-16.4 46.1-16.4-46.1-44.2 21 21-44.2-46.1-16.4 46.1-16.3-21-44.2 44.2 21 16.4-46.1M499.7 8.1l16.4 46.1 44.1-21-21 44.2 46.1 16.3-46.1 16.4 21 44.2-44.1-21-16.4 46.1-16.4-46.1-44.2 21 21-44.2-46-16.4 46-16.3-21-44.2 44.2 21 16.4-46.1M499.7 470.6l16.4 46 44.1-21-21 44.2 46.1 16.4-46.1 16.4 21 44.1-44.1-21-16.4 46.1-16.4-46.1-44.2 21 21-44.1-46-16.4 46-16.4-21-44.2 44.2 21 16.4-46"
   id="path14"
   style="fill:#40826d;fill-opacity:1" />
  <path
   class="st1"
   d="m499.7 243.7 15.5 43.7 41.9-19.9-19.9 41.9 43.7 15.5-43.7 15.6 19.9 41.9-41.9-19.9-15.5 43.7-15.6-43.7-41.9 19.9 19.9-41.9-43.7-15.6 43.7-15.5-19.9-41.9 41.9 19.9 15.6-43.7M124.6 249.9l14.4 40.4 38.7-18.4-18.4 38.7 40.3 14.3-40.3 14.4 18.4 38.7-38.7-18.4-14.4 40.3-14.3-40.3L71.6 378 90 339.3l-40.4-14.4L90 310.6l-18.4-38.7 38.7 18.4 14.3-40.4M874.6 249.9l14.4 40.4 38.7-18.4-18.4 38.7 40.3 14.3-40.3 14.4 18.4 38.7-38.7-18.4-14.4 40.3-14.3-40.3-38.7 18.4 18.4-38.7-40.4-14.4 40.4-14.3-18.4-38.7 38.7 18.4 14.3-40.4M499.7 18.7 514 59.1l38.7-18.4-18.4 38.7 40.4 14.3-40.4 14.4 18.4 38.7-38.7-18.4-14.3 40.3-14.4-40.3-38.7 18.4 18.4-38.7-40.3-14.4L465 79.4l-18.4-38.7 38.7 18.4 14.4-40.4M499.7 481.2l14.3 40.3 38.7-18.4-18.4 38.7 40.4 14.4-40.4 14.3 18.4 38.7-38.7-18.4-14.3 40.4-14.4-40.4-38.7 18.4 18.4-38.7-40.3-14.3 40.3-14.4-18.4-38.7 38.7 18.4 14.4-40.3"
   id="path16" />
</svg>
